<?xml version="1.0" standalone="no"?>
<!DOCTYPE svg PUBLIC "-//W3C//DTD SVG 1.1//EN" "http://www.w3.org/Graphics/SVG/1.1/DTD/svg11.dtd" >
<svg>
<metadata>
Created by FontForge 20110222 at Sun Nov 17 16:19:13 2013
 By Orthosie Webhosting
Copyright (c) 2012 by PYRS Fontlab Ltd. / Made with FontLab. All rights reserved.
</metadata>
<defs>
<font id="StrokeBold" horiz-adv-x="494" >
  <font-face 
    font-family="StrokeBold"
    font-weight="700"
    font-stretch="normal"
    units-per-em="1000"
    panose-1="0 0 0 0 0 0 0 0 0 0"
    ascent="696"
    descent="-304"
    x-height="449"
    cap-height="801"
    bbox="-161 -349 824 904"
    underline-thickness="50"
    underline-position="-49"
    unicode-range="U+0020-2022"
  />
<missing-glyph horiz-adv-x="500" 
d="M125 63h250v571h-250v-571zM63 0v696h375v-696h-375z" />
    <glyph glyph-name=".notdef" horiz-adv-x="500" 
d="M125 63h250v571h-250v-571zM63 0v696h375v-696h-375z" />
    <glyph glyph-name=".null" horiz-adv-x="0" 
 />
    <glyph glyph-name="nonmarkingreturn" horiz-adv-x="333" 
 />
    <glyph glyph-name="space" unicode=" " horiz-adv-x="250" 
 />
    <glyph glyph-name="exclam" unicode="!" horiz-adv-x="130" 
d="M72 0h-69v76h69v-76zM72 161h-69v635h69v-635z" />
    <glyph glyph-name="quotedbl" unicode="&#x22;" horiz-adv-x="253" 
d="M59 629l-60 38q42 83 54 166l70 -11q-17 -112 -64 -193zM163 618l-61 37q40 63 55 166l70 -11q-15 -103 -64 -192z" />
    <glyph glyph-name="numbersign" unicode="#" horiz-adv-x="555" 
d="M336 518l-141 -1l-32 -204h141zM493 235h-123l-38 -245l-77 11l37 234h-141l-39 -245l-76 11l36 234h-66v78h78l32 204h-110v79h123l37 242l77 -13l-36 -229h141l38 242l76 -13l-36 -229h67v-78h-79l-32 -205h111v-78z" />
    <glyph glyph-name="dollar" unicode="$" horiz-adv-x="478" 
d="M246 0v-101h-72v101q-24 1 -45 5.5t-45.5 17t-42 32t-29.5 52.5t-12 77h70q0 -63 32.5 -88t117.5 -25q59 0 94.5 31.5t35.5 71.5v119q0 41 -25 65q-37 37 -115 35h-1h-8q-33 1 -56.5 5t-52 15t-49.5 34.5t-33 58.5q-10 30 -10 107q0 175 174 189v102h72v-103
q175 -16 175 -178h-71q0 23 -4 38.5t-17.5 33t-44.5 26.5t-79 9q-74 0 -104.5 -27t-30.5 -90q0 -62 8 -83q6 -18 17 -30t21.5 -18.5t30 -10t30 -4t32.5 -1.5q115 -5 166 -56q46 -46 46 -117v-119q0 -68 -50 -117t-125 -57z" />
    <glyph glyph-name="percent" unicode="%" horiz-adv-x="454" 
d="M294 137q-16 0 -27 -11.5t-11 -27.5t11 -27.5t27 -11.5t27.5 11.5t11.5 27.5t-11.5 27.5t-27.5 11.5zM103 639q-16 0 -27 -11.5t-11 -28.5q0 -16 11 -27.5t27 -11.5t27.5 11.5t11.5 27.5t-11.5 28t-27.5 12zM294 -6q-43 0 -73 30.5t-30 73.5q0 44 30 74.5t73 30.5
t73 -30.5t30 -74.5q0 -43 -30 -73.5t-73 -30.5zM398 665l-341 -663l-57 30l341 664zM103 494q-43 0 -73 30.5t-30 74.5t30 75t73 31t73 -31t30 -75t-30 -74.5t-73 -30.5z" />
    <glyph glyph-name="ampersand" unicode="&#x26;" horiz-adv-x="534" 
d="M124 344q-53 -35 -53 -122v-3q0 -70 34 -108t96 -38q89 0 121 26q-128 132 -198 245zM325 599v3q-3 65 -27.5 95t-73.5 30q-71 0 -94.5 -30t-23.5 -102q0 -68 45 -156q8 3 23.5 9t19.5 8q32 11 55 21q51 21 69 72q5 16 7 34v16zM467 60l-47 -55q-14 12 -46 43
q-53 -48 -173 -48q-93 0 -147 59t-54 160v3q0 129 88 185q-54 106 -54 188q0 40 6.5 71.5t25 64t58.5 50.5t100 18q81 0 125.5 -51.5t46.5 -144.5q0 -22 -4 -45.5t-15.5 -52.5t-37.5 -54.5t-63 -40.5q-12 -5 -32 -12.5t-25 -9.5q-11 -4 -31 -12q67 -102 163 -202v1
q0 19 -4 49q-11 70 -35 136l67 25q29 -82 39 -152q4 -29 4 -59q0 -36 -9 -64q31 -30 54 -50z" />
    <glyph glyph-name="quotesingle" unicode="'" horiz-adv-x="163" 
d="M66 633l-66 10q19 126 61 192l56 -37q-36 -57 -51 -165z" />
    <glyph glyph-name="parenleft" unicode="(" horiz-adv-x="265" 
d="M178 834l24 -29l24 -29q-8 -8 -18 -19t-34.5 -48t-42.5 -76.5t-33 -102t-15 -127.5t15 -128t33 -103.5t42 -77t34.5 -48.5t18.5 -20l-48 -56q-12 12 -23.5 25t-40.5 56t-49 88.5t-37 117t-17 146.5t17 146.5t37 116.5t49 87.5t40.5 55.5t23.5 25z" />
    <glyph glyph-name="parenright" unicode=")" horiz-adv-x="265" 
d="M-40 776l24 29l23 29q12 -12 23.5 -25t40.5 -55.5t49 -87.5t37 -116.5t17 -146.5t-17 -146.5t-37 -117t-49 -88.5t-40.5 -56t-23.5 -25l-47 56q8 8 18 20t34 48.5t42.5 77t33 103.5t14.5 128t-14.5 127.5t-32.5 102t-42.5 76t-34.5 48t-18 19.5z" />
    <glyph glyph-name="asterisk" unicode="*" horiz-adv-x="449" 
d="M389 619h-137l72 -124l-57 -34l-72 125l-69 -119l-57 34l68 118h-137v66h137l-68 118l57 33l69 -118l68 118l58 -33l-69 -118h137v-66z" />
    <glyph glyph-name="plus" unicode="+" horiz-adv-x="448" 
d="M377 388h-153v-153h-71v153h-153v71h153v153h71v-153h153v-71z" />
    <glyph glyph-name="comma" unicode="," horiz-adv-x="163" 
d="M55 -91l-56 37q38 75 51 164l65 -11q-15 -108 -60 -190z" />
    <glyph glyph-name="hyphen" unicode="-" horiz-adv-x="281" 
d="M200 386h-200v76h200v-76z" />
    <glyph glyph-name="period" unicode="." horiz-adv-x="109" 
d="M36 0q-14 0 -24 10t-10 24t10 24t24 10t24 -10t10 -24t-10 -24t-24 -10z" />
    <glyph glyph-name="slash" unicode="/" horiz-adv-x="549" 
d="M485 806l-418 -808l-67 34l418 810z" />
    <glyph glyph-name="zero" unicode="0" horiz-adv-x="500" 
d="M212 75q41 -1 87 18l-213 601q-12 -18 -12 -43v-475q0 -45 39.5 -72.5t98.5 -28.5zM367 176v475q0 47 -49 74.5t-106 27.5q-33 0 -66 -11l213 -600q8 18 8 34zM212 0q-89 0 -150 50t-61 126v475q0 76 60.5 126t149.5 50t159 -48t70 -128v-475q0 -80 -69.5 -128
t-158.5 -48z" />
    <glyph glyph-name="one" unicode="1" horiz-adv-x="268" 
d="M203 0h-69v708q0 15 -4 16q0 1 -3 0t-8.5 -6.5t-10.5 -14.5l-28.5 -47.5t-20 -33t-8.5 -14.5l-56 41q2 3 8 13.5t19 32.5t28 47q21 36 48 48t51 5q25 -8 39 -31.5t14 -55.5z" />
    <glyph glyph-name="two" unicode="2" horiz-adv-x="500" 
d="M409 478q-12 -35 -33 -58t-49 -33.5t-52 -14.5t-56 -5l-8 -1h-1q-77 3 -115 -35q-24 -23 -24 -63v-195h340v-73h-411v268q0 70 46 116q51 50 165 55q27 1 40.5 2.5t35 7t35 19t20.5 34.5q7 42 7 109q0 62 -30.5 89t-103.5 27q-47 0 -78 -9t-44.5 -26.5t-17.5 -33
t-4 -37.5h-71q0 178 215 178q205 0 205 -188q0 -101 -11 -133z" />
    <glyph glyph-name="three" unicode="3" horiz-adv-x="459" 
d="M129 0h-129v72h129q101 0 146 37t45 117q0 46 -18 81t-42 52.5t-53 28t-45 12.5t-24 2h-138v72h139h1h10q66 0 94.5 9t48.5 30q15 15 20 41q2 16 2 24q1 9 1 26v4q0 60 -45 87.5t-151 27.5h-120v72h120q266 0 266 -187v-4q0 -21 -1 -32q0 -11 -4 -37q-9 -44 -38 -73
q-23 -22 -54 -36q102 -67 102 -200q0 -112 -66.5 -169t-195.5 -57z" />
    <glyph glyph-name="four" unicode="4" horiz-adv-x="491" 
d="M430 0h-72v377h-156q-74 0 -138 49.5t-64 120.5v250h72v-250q0 -37 41.5 -67t88.5 -30h156v347h72v-797z" />
    <glyph glyph-name="five" unicode="5" 
d="M219 0q-219 0 -219 184h71q0 -62 32 -86.5t116 -24.5q59 0 94.5 31t35.5 71v118q0 45 -32 77q-40 39 -109 39h-208v388h392v-73h-321v-243h137q99 0 158 -59q54 -52 54 -129v-118q0 -74 -58.5 -124.5t-142.5 -50.5z" />
    <glyph glyph-name="six" unicode="6" 
d="M343 279q0 36 -6 54q-8 20 -18.5 33t-20 19.5t-28 10t-31.5 4t-42 0.5q-34 0 -61 -11.5t-40.5 -27.5t-20.5 -29.5t-7 -20.5v-141q0 -31 18.5 -54.5t77.5 -37.5q43 -10 83.5 -3t65.5 27q30 24 30 68q0 5 0.5 16.5t0.5 17.5q0 51 -1 75zM414 170q0 -77 -57 -125
q-56 -45 -143 -45q-31 0 -66 8q-150 36 -150 162v459q0 19 3.5 37.5t16.5 43.5t34.5 43t62 31t94.5 13h171v-72h-171q-141 0 -141 -96v-198q53 41 129 41q31 0 48 -1t44.5 -6.5t45 -16.5t36 -33t31.5 -54q14 -34 12 -158v-33z" />
    <glyph glyph-name="seven" unicode="7" horiz-adv-x="510" 
d="M387 571q-48 -79 -128.5 -219.5t-139.5 -244.5t-61 -107l-60 35q3 7 61 109.5t138 242t130 221.5q38 65 19 98q-13 23 -62 23l-261 -2l-1 72l262 2q90 1 124 -60q38 -71 -21 -170z" />
    <glyph glyph-name="eight" unicode="8" horiz-adv-x="488" 
d="M353 170v141q0 45 -47.5 71.5t-102.5 26.5q-54 0 -93 -26.5t-39 -71.5v-141q0 -44 39 -70.5t93 -26.5q54 -1 102 26t48 71zM212 482q54 3 97.5 29t43.5 69v49q0 45 -47.5 71.5t-102.5 26.5q-54 0 -93 -26.5t-39 -71.5v-49q0 -45 40 -71.5t101 -26.5zM203 0
q-85 0 -144 48.5t-59 121.5v141q0 84 75 135q-75 49 -75 134v49q0 74 58.5 122.5t144.5 48.5t153.5 -47t67.5 -124v-49q0 -86 -84 -134q84 -50 84 -135v-141q0 -77 -67.5 -123.5t-153.5 -46.5z" />
    <glyph glyph-name="nine" unicode="9" 
d="M345 436v183q0 54 -41 80.5t-98 26.5q-79 0 -107.5 -22t-28.5 -79v-36q-2 -27 0 -47q1 -20 6 -32q21 -49 52 -61.5t118 -12.5h99zM204 0h-171v72h171q141 0 141 95v197h-99q-52 0 -83.5 3.5t-62 15t-51 35t-37.5 62.5q-12 30 -12 110v35q0 35 8.5 63.5t21 46t32.5 30.5
t36.5 19t40 9.5t36 4t31.5 0.5q93 0 151 -49t58 -130v-452q0 -19 -3.5 -37.5t-16.5 -43t-34.5 -42.5t-62 -31t-94.5 -13z" />
    <glyph glyph-name="colon" unicode=":" horiz-adv-x="195" 
d="M36 89q-15 0 -25.5 10.5t-10.5 25.5t10.5 26t25.5 11t25.5 -11t10.5 -26t-10.5 -25.5t-25.5 -10.5zM36 278q-15 0 -25.5 11t-10.5 26t10.5 25.5t25.5 10.5t25.5 -10.5t10.5 -25.5t-10.5 -26t-25.5 -11z" />
    <glyph glyph-name="semicolon" unicode=";" horiz-adv-x="155" 
d="M24 -92l-56 39q35 63 51 174l65 -11q-15 -112 -60 -202zM55 298q-14 0 -24.5 10.5t-10.5 25.5t10.5 25.5t24.5 10.5t24.5 -10.5t10.5 -25.5t-10.5 -25.5t-24.5 -10.5z" />
    <glyph glyph-name="less" unicode="&#x3c;" horiz-adv-x="431" 
d="M105 436q-36 -19 -36 -39q0 -18 26 -32q10 -6 52 -28t112 -59t124 -66l-31 -61q-244 127 -289 153q-64 34 -62 94q0 63 73 100q22 11 279 148l32 -61q-38 -20 -106 -56.5t-111.5 -59.5t-62.5 -33z" />
    <glyph glyph-name="equal" unicode="=" horiz-adv-x="474" 
d="M372 180h-372v68h372v-68zM372 328h-372v68h372v-68z" />
    <glyph glyph-name="greater" unicode="&#x3e;" horiz-adv-x="431" 
d="M320 304q-74 -40 -290 -153l-30 61q52 28 123.5 66t112.5 59.5t51 27.5q26 14 26 32q0 20 -36 39q-56 28 -278 149l31 61q207 -111 279 -148q72 -38 72 -100q2 -59 -61 -94z" />
    <glyph glyph-name="question" unicode="?" horiz-adv-x="492" 
d="M210 0h-71v75h71v-75zM425 571q-2 -32 -12 -69q-30 -100 -114 -123q-39 -11 -56.5 -29t-25 -61t-7.5 -132h-71q0 142 25.5 205t115.5 88q50 13 67 83q7 27 7 50l1 22q-2 68 -34.5 93.5t-102.5 25.5q-48 0 -79 -9t-44.5 -26.5t-17.5 -33t-4 -38.5h-72q0 180 217 180
q206 0 208 -189q0 -28 -1 -37z" />
    <glyph glyph-name="at" unicode="@" horiz-adv-x="798" 
d="M451 269v207q0 41 -1 56q-2 22 -4 24q-3 3 -26 5q-15 1 -54 1q-94 0 -137.5 -32t-46.5 -102v-11q0 -66 38 -104q33 -31 86 -40q21 -4 50 -4h95zM665 196q-44 -66 -113 -66q-35 0 -62.5 19.5t-35.5 49.5h-97q-34 0 -69 7q-71 16 -115 57q-60 57 -60 154q0 214 253 214
q81 0 108 -12q10 16 37 36l40 -57q-18 -13 -25 -27t-6 -39v-55v-259q0 -5 9 -11.5t23 -6.5q33 0 56 35q36 54 36 166q0 150 -70 226.5t-206 76.5q-74 0 -130 -21t-87 -51.5t-50 -73t-25 -79t-6 -75.5q0 -60 17.5 -114.5t51 -99t90 -70.5t127.5 -26h157v-69h-157
q-172 0 -271 122q-84 106 -84 257q0 41 6 81t28.5 95t60 95.5t108 69t164.5 28.5q166 0 255.5 -96.5t89.5 -275.5q0 -133 -48 -205z" />
    <glyph glyph-name="A" unicode="A" horiz-adv-x="481" 
d="M356 462v156q0 55 -45 81.5t-98 26.5h-2q-73 0 -112 -41q-27 -27 -27 -67v-156h284zM428 0h-72v389h-284v-389h-72v618q0 69 48 119q64 64 165 62q85 -1 150 -47.5t65 -133.5v-618z" />
    <glyph glyph-name="B" unicode="B" horiz-adv-x="487" 
d="M174 404h-101v-237q0 -45 1 -61q0 -22 4 -27q3 -3 29 -5q16 -1 57 -1q108 0 153.5 34.5t45.5 114.5q0 49 -19.5 85.5t-44.5 54t-55.5 28t-46 12.5t-23.5 2zM342 518l1 2q2 4 4 10.5t3 7.5q4 13 5 17q3 18 3 59q0 64 -48.5 88t-153.5 24q-83 0 -83 -95v-153h71l61 -1
q68 -1 96.5 6.5t40.5 34.5zM164 0q-60 0 -82 2q-36 6 -56 26q-17 18 -21.5 47t-4.5 91v333v132q0 77 42 122.5t114 45.5q49 0 78 -2q51 -5 90 -20q106 -41 106 -163q0 -47 -3.5 -69t-18.5 -57q-20 -48 -66 -68q93 -70 93 -198q0 -58 -18 -100t-44.5 -65t-65.5 -36.5t-71 -17
t-72 -3.5z" />
    <glyph glyph-name="C" unicode="C" horiz-adv-x="511" 
d="M432 608h-72q0 50 -28 77q-41 43 -115 41q-32 0 -63 -9t-56.5 -35t-25.5 -65v-446q0 -32 19.5 -56t80.5 -39q44 -10 86 -3.5t68 27.5q31 25 31 81h73q0 -90 -59 -138q-56 -46 -147 -46q-29 0 -68 7q-156 38 -156 167v446q0 88 65.5 135t151.5 48q102 2 166 -62
q49 -51 49 -130z" />
    <glyph glyph-name="D" unicode="D" horiz-adv-x="524" 
d="M361 183v430q0 55 -46 84t-101 29l-141 -1q0 -88 0.5 -339t1.5 -312h140q54 0 100 26.5t46 82.5zM216 0h-214v37v152.5t-0.5 314t-0.5 258.5l-1 37h214q87 1 153 -49t66 -137v-430q0 -88 -65.5 -135.5t-151.5 -47.5z" />
    <glyph glyph-name="E" unicode="E" horiz-adv-x="508" 
d="M408 2h-245q-61 0 -82 3q-37 5 -55 26q-18 18 -23 53q-3 21 -3 84v463q0 74 45 120.5t118 46.5h245v-73h-245q-43 0 -67 -25t-24 -69v-171h336v-74h-336v-217q0 -45 1 -61q2 -24 4 -26q4 -4 28 -6q17 -1 58 -1h245v-73z" />
    <glyph glyph-name="F" unicode="F" horiz-adv-x="502" 
d="M412 395h-340v-395h-72v632q0 76 45 122.5t119 46.5h248v-74h-248q-43 0 -67.5 -25.5t-24.5 -69.5v-163h340v-74z" />
    <glyph glyph-name="G" unicode="G" horiz-adv-x="523" 
d="M429 172q0 -81 -59 -129q-56 -45 -146 -45q-37 0 -68 7q-156 36 -156 167v455q0 19 3.5 38t17 44.5t36 44.5t64.5 32t97 13q23 0 38.5 -1t44 -5.5t48 -16.5t39.5 -31t30.5 -52t10.5 -76h-72q0 66 -31 87.5t-108 21.5q-146 0 -146 -99v-455q0 -32 19.5 -56.5t80.5 -38.5
q44 -10 86 -3.5t67 27.5q32 26 32 71v38q2 32 0 63q-1 31 -6 45q-19 44 -60.5 57t-125.5 13v74q51 0 73 -2q35 -2 68 -12q78 -24 111 -100q15 -35 13 -140q-1 -12 -1 -36z" />
    <glyph glyph-name="H" unicode="H" horiz-adv-x="521" 
d="M429 0h-72v395h-285v-395h-72v799h72v-330h285v330h72v-799z" />
    <glyph glyph-name="I" unicode="I" horiz-adv-x="479" 
d="M381 0h-380v74h154v653h-154v74h380v-74h-154v-653h154v-74z" />
    <glyph glyph-name="J" unicode="J" horiz-adv-x="518" 
d="M216 0h-3q-102 0 -164 62q-49 51 -49 130h73q0 -50 27 -77q43 -43 115 -41q54 0 99.5 26.5t45.5 82.5v617h72v-617q0 -88 -65.5 -135.5t-150.5 -47.5z" />
    <glyph glyph-name="K" unicode="K" horiz-adv-x="496" 
d="M435 0h-72v272q0 95 -118 114q-5 -1 -16 -1h-157v-385h-72v798h72v-339h157q50 0 90 26t40 62v251h72v-251q1 -75 -74 -124q78 -50 78 -151v-272z" />
    <glyph glyph-name="L" unicode="L" horiz-adv-x="488" 
d="M410 1h-246q-61 0 -82 3q-36 6 -56 26q-18 20 -23 53q-3 22 -3 85v633h72v-633q0 -44 1 -61q2 -22 5 -26q3 -3 28 -5q17 -2 58 -2h246v-73z" />
    <glyph glyph-name="M" unicode="M" horiz-adv-x="906" 
d="M372 11v18v600q0 30 -24 54q-47 47 -134 47q-58 0 -99 -27.5t-41 -73.5v-629h-74v629q0 75 61.5 125t151.5 50q54 0 104.5 -18.5t82.5 -50.5q1 -1 2.5 -2t2.5 -2.5t2 -2.5q61 76 179 76q54 0 104.5 -18.5t82.5 -50.5q45 -45 45 -106v-628h-74v628q0 30 -24 54
q-47 47 -134 47q-58 0 -99 -27.5t-41 -73.5v-629h-74v11z" />
    <glyph glyph-name="N" unicode="N" horiz-adv-x="515" 
d="M434 2h-72v623q0 28 -23 53q-45 47 -130 47q-56 0 -95.5 -27.5t-39.5 -72.5v-624h-72v624q0 74 59.5 123.5t147.5 49.5q52 0 101 -18t80 -50q44 -46 44 -105v-623z" />
    <glyph glyph-name="O" unicode="O" horiz-adv-x="515" 
d="M207 74q59 0 106.5 28t47.5 72v452q0 45 -49 72.5t-105 27.5t-96 -27.5t-40 -72.5v-452q0 -44 39 -72t97 -28zM207 0q-88 0 -147.5 49.5t-59.5 124.5v452q0 75 59.5 124.5t147.5 49.5t157 -47.5t69 -126.5v-452q0 -79 -69 -126.5t-157 -47.5z" />
    <glyph glyph-name="P" unicode="P" horiz-adv-x="524" 
d="M369 534v81q0 31 -16 53.5t-36 33t-45 17t-36 7.5t-17 1q-5 0 -16.5 -1t-35.5 -7.5t-44 -17.5t-35.5 -33.5t-15.5 -52.5v-194h147q5 0 16.5 1t36.5 7.5t45 17.5t36 33.5t16 53.5zM219 348h-147v-348h-72v615q0 50 24 88.5t60 58.5t71 29.5t64 9.5q34 0 70.5 -10.5
t71.5 -31t57.5 -58t22.5 -86.5v-81q0 -49 -22.5 -87t-58 -58.5t-71.5 -30.5t-70 -10z" />
    <glyph glyph-name="Q" unicode="Q" horiz-adv-x="524" 
d="M435 165h-73v462q0 30 -23 53q-45 47 -130 47q-56 0 -96.5 -27.5t-40.5 -72.5v-453q0 -45 40 -72.5t96 -27.5h200v-74h-112h-88q-88 0 -148 50t-60 124v453q0 74 60 124t148 50q53 0 102.5 -18.5t80.5 -50.5q44 -46 44 -105v-462z" />
    <glyph glyph-name="R" unicode="R" horiz-adv-x="521" 
d="M360 638q0 44 -42.5 66t-106.5 22q-66 0 -102.5 -27t-36.5 -61v-213h157q47 0 83 21t46 53q4 12 4 36q1 15 -1 50q0 8 -0.5 26t-0.5 27zM242 351h-13h-157v-351h-72v638q0 66 57 114t154 48q99 0 160 -43.5t61 -118.5q0 -9 0.5 -25.5t0.5 -24.5q2 -41 1 -59q0 -29 -7 -51
q-16 -54 -71 -91q81 -56 81 -156v-231h-73v231q0 98 -122 120z" />
    <glyph glyph-name="S" unicode="S" horiz-adv-x="499" 
d="M226 0q-19 0 -32.5 0.5t-39 4t-44 10.5t-41 21t-36.5 33.5t-23.5 50t-9.5 69.5h73q0 -64 33 -89.5t120 -25.5q61 0 97.5 32.5t36.5 73.5v112q0 41 -25 66q-41 39 -119 36h-1h-8q-34 1 -58 5t-53 15t-50.5 35t-33.5 60q-12 33 -12 100q0 194 211 194q222 0 222 -184h-73
q0 23 -4.5 39.5t-18.5 34t-45.5 27t-80.5 9.5q-75 0 -106.5 -28t-31.5 -92q0 -42 1 -52q2 -7 3 -12q1 -2 2 -5.5t1 -5.5q7 -22 20.5 -36t36 -20t36 -7.5t42.5 -2.5q116 -3 170 -57q48 -46 48 -119v-112q0 -76 -60.5 -128t-146.5 -52z" />
    <glyph glyph-name="T" unicode="T" horiz-adv-x="457" 
d="M378 724h-153v-724h-72v724h-153v74h378v-74z" />
    <glyph glyph-name="U" unicode="U" horiz-adv-x="518" 
d="M224 1q-52 0 -101 18.5t-80 49.5q-43 44 -43 106v625h71v-625q0 -31 23 -54q46 -46 130 -46q56 0 96 27t40 73v626h72v-626q0 -75 -60 -124.5t-148 -49.5z" />
    <glyph glyph-name="V" unicode="V" horiz-adv-x="524" 
d="M389 68q-32 -32 -80.5 -50t-100.5 -18h-208v800h72v-726h135q39 0 75 13t56 33q23 25 23 54v625h72v-625q0 -60 -44 -106z" />
    <glyph glyph-name="W" unicode="W" horiz-adv-x="885" 
d="M443 790v-30l1 -585q0 -30 24 -54q47 -47 133 -47q57 0 98 27.5t41 73.5v626h73l1 -626q0 -75 -61.5 -124.5t-151.5 -49.5q-54 0 -104 18t-82 50q-2 3 -7 8q-60 -76 -177 -76q-53 -1 -103.5 17.5t-82.5 50.5q-45 45 -45 106v625h74v-625q0 -29 23 -54q47 -47 134 -47
q57 0 98 27.5t41 73.5l-1 626h74v-11z" />
    <glyph glyph-name="X" unicode="X" horiz-adv-x="521" 
d="M431 153v-153h-72v153v51q1 21 1 65q0 33 -3 44q-11 35 -47 57.5t-80 23.5h-2h-25h-2q-44 -1 -79 -23.5t-46 -57.5q-3 -9 -3 -56q-1 -28 -1 -81v-176h-72v176q0 138 8 161q18 58 72 94q-55 37 -73 95v2q-6 20 -6 50q-1 20 -1 76v148h72v-148q0 -50 1 -68q0 -28 3 -38
q10 -34 45.5 -56.5t79.5 -23.5h2h25h2q44 1 79.5 23.5t46.5 56.5q1 3 3 28v46v33v147h72v-147v-32v-55q0 -21 -5 -39v-2q-17 -58 -74 -96q57 -38 74 -95q8 -29 6 -133q-1 -18 -1 -50z" />
    <glyph glyph-name="Y" unicode="Y" horiz-adv-x="508" 
d="M429 560q0 -20 -5 -37q-17 -53 -64.5 -88.5t-108.5 -41.5v-393h-72v393q-59 5 -107 40t-65 91q-5 19 -7 45v59v171h72v-172v-51q2 -21 4 -31q11 -35 46 -57.5t80 -22.5h25q45 0 81.5 23t47.5 58q0 1 2 24v43q-1 12 -1 38v148h72v-148q0 -26 1 -37q0 -40 -1 -54z" />
    <glyph glyph-name="Z" unicode="Z" horiz-adv-x="521" 
d="M430 532q-2 -32 -12 -57q-28 -63 -77 -86t-117 -26h-7h-2q-79 2 -117 -36q-26 -24 -26 -65v-188h358v-74h-430v262q0 73 47 118q52 52 169 57q27 1 43 3t36 8.5t33.5 20.5t23.5 36q4 12 6 37q2 24 0 54v37v92h-356v74h428v-166q0 -6 0.5 -18t0.5 -18q0 -55 -1 -65z" />
    <glyph glyph-name="bracketleft" unicode="[" horiz-adv-x="253" 
d="M188 52l-1 -75q-89 1 -138 50.5t-49 137.5v468q0 88 49.5 139.5t137.5 52.5l1 -76q-118 0 -118 -116v-468q0 -113 118 -113z" />
    <glyph glyph-name="backslash" unicode="\" horiz-adv-x="549" 
d="M485 32l-67 -34l-418 808l67 36z" />
    <glyph glyph-name="bracketright" unicode="]" horiz-adv-x="253" 
d="M-50 -23v75q116 0 116 113v468q0 116 -116 116v76q87 -1 136.5 -52.5t49.5 -139.5v-468q0 -88 -48.5 -137.5t-137.5 -50.5z" />
    <glyph glyph-name="asciicircum" unicode="^" horiz-adv-x="587" 
d="M520 455l-63 -33q-152 285 -157 295q-20 38 -42 38q-19 0 -34 -28q-5 -10 -28 -53.5t-62 -116.5t-71 -134l-63 33q126 240 161 305q36 65 97 65h1q66 -2 105 -77q22 -42 156 -294z" />
    <glyph glyph-name="underscore" unicode="_" horiz-adv-x="504" 
d="M424 -101h-424v75h424v-75z" />
    <glyph glyph-name="grave" unicode="`" horiz-adv-x="160" 
d="M119 745l-47 -44q-19 22 -72 77l44 46q47 -47 75 -79z" />
    <glyph glyph-name="a" unicode="a" horiz-adv-x="480" 
d="M356 169v88l10 -10h-4h-167q-70 0 -96.5 -19t-26.5 -65v-5q0 -43 37.5 -64.5t94.5 -21.5q84 0 129 45q23 23 23 52zM384 67q-67 -67 -180 -67q-90 0 -147 43.5t-57 114.5v5q0 44 16 75.5t36 46.5t52 23.5t49 9.5t42 1h150q-17 31 -55 46t-77 15h-185v72h185
q82 0 146 -43.5t68 -124.5l-2 6q3 -7 3 -9v-7v-105q0 -58 -44 -102z" />
    <glyph glyph-name="b" unicode="b" horiz-adv-x="496" 
d="M322 344q-33 30 -92 40q-22 3 -55 3h-103v-219q0 -45 1 -61q2 -23 5 -27q4 -3 28 -5q17 -1 58 -1q96 0 147.5 34t51.5 125q0 73 -41 111zM435 217q-9 -217 -271 -217q-60 0 -90 5t-48 24q-17 18 -21.5 46t-4.5 93v632h72v-340l102 1q42 0 75 -6q75 -14 122 -57
q64 -60 64 -165v-16z" />
    <glyph glyph-name="c" unicode="c" horiz-adv-x="463" 
d="M403 0h-178q-115 0 -179 64q-46 46 -46 115v97q0 87 65.5 133.5t150.5 46.5h187v-73h-187q-53 0 -98.5 -25.5t-45.5 -80.5v-98q0 -39 25 -64q43 -43 127 -43h179v-72z" />
    <glyph glyph-name="d" unicode="d" 
d="M363 168v219h-105q-5 1 -12 1q-86 0 -133 -44q-41 -39 -41 -111q0 -8 1 -12q3 -76 49.5 -111.5t148.5 -35.5q80 0 86 6q6 7 6 88zM409 29q-18 -19 -48 -24t-90 -5q-125 0 -198 55t-73 178q0 105 64 166q49 43 122 57q27 5 76 5h101v340h72v-633q0 -65 -4.5 -93t-21.5 -46
z" />
    <glyph glyph-name="e" unicode="e" horiz-adv-x="481" 
d="M354 287v5q0 42 -38 64t-94 22q-82 0 -128 -46q-23 -23 -23 -51v-86h160q75 0 99 25.5t24 66.5zM231 123h-148q34 -52 131 -52h210v-71h-211q-81 0 -145 39t-68 119l3 -6q-3 8 -3 9v7v113q0 59 43 102q68 66 179 66q89 0 146 -43t57 -114v-5q0 -31 -8.5 -57.5t-28.5 -52
t-60 -40t-97 -14.5z" />
    <glyph glyph-name="f" unicode="f" horiz-adv-x="280" 
d="M216 386h-147v-386h-69v618q0 57 19.5 95t54.5 55t67.5 22.5t74.5 5.5v-73q-83 0 -115 -24t-32 -81v-158h147v-74z" />
    <glyph glyph-name="g" unicode="g" horiz-adv-x="510" 
d="M75 233q0 -75 42 -116q34 -34 94 -46q32 -5 56 -5h104v215q0 10 0.5 25.5t0.5 23.5t-0.5 17.5t-2 15t-3.5 7.5q-7 7 -89 7q-107 0 -153 -33t-49 -108v-3zM226 -345q-106 0 -164 59.5t-58 133.5h73q0 -41 36.5 -79.5t112.5 -38.5q80 0 112.5 35.5t32.5 121.5v106h-104
q-42 0 -76 7q-76 16 -125 62q-69 69 -65 172v5q3 55 23 95.5t46.5 62.5t65.5 35t70.5 16.5t70.5 3.5q63 0 85 -4q38 -5 56 -26q19 -19 24 -54q3 -22 3 -87v-394q0 -232 -219 -232z" />
    <glyph glyph-name="h" unicode="h" horiz-adv-x="493" 
d="M434 226v-44v-182h-73q0 9 0.5 78.5t0.5 103.5v44q0 74 -42 114q-34 34 -92 44q-23 5 -54 5h-102v-389h-72v802h72v-339h102q40 0 74 -8q76 -16 122 -61q64 -63 64 -168z" />
    <glyph glyph-name="i" unicode="i" horiz-adv-x="121" 
d="M76 0h-76v455h76v-455zM76 543h-76v75h76v-75z" />
    <glyph glyph-name="j" unicode="j" horiz-adv-x="144" 
d="M-161 -349v76q84 0 117 35.5t33 123.5v568h70v-568q0 -119 -54 -177t-166 -58zM59 545h-70v77h70v-77z" />
    <glyph glyph-name="k" unicode="k" horiz-adv-x="503" 
d="M436 0h-72v88q0 114 -291 114l-1 -202h-72v800h72v-524q189 4 251 68q34 35 37 117h11l61 -1q0 -38 -13.5 -87t-44.5 -81q-29 -29 -67 -46q129 -46 129 -158v-88z" />
    <glyph glyph-name="l" unicode="l" horiz-adv-x="115" 
d="M75 0h-75v796h75v-796z" />
    <glyph glyph-name="m" unicode="m" horiz-adv-x="873" 
d="M812 0h-73v282q0 30 -24 52q-48 46 -133 46q-57 0 -98 -26.5t-41 -71.5v-282h-10h-54q-4 4 -6.5 74.5t-2.5 139.5l-1 68q-2 31 -23 52q-48 46 -134 46q-57 0 -97.5 -26.5t-40.5 -71.5v-282h-74v282q0 73 61 121.5t151 48.5q54 0 104 -18t82 -49q1 -1 2 -2.5t2.5 -2.5
t2.5 -2q60 74 177 74q54 0 104 -18t81 -49q45 -43 45 -103v-282z" />
    <glyph glyph-name="n" unicode="n" horiz-adv-x="487" 
d="M432 0h-72v285q0 27 -23 52q-45 45 -130 45q-55 0 -95 -26.5t-40 -70.5v-285h-72v285q0 73 60 121.5t147 47.5q113 0 181 -66q44 -46 44 -103v-285z" />
    <glyph glyph-name="o" unicode="o" 
d="M204 72q59 0 105.5 27t46.5 70v113q0 44 -48 70.5t-103 26.5q-56 0 -95 -26t-39 -71v-113q0 -44 38 -70.5t95 -26.5zM205 0q-87 0 -146 48t-59 121v113q0 73 58.5 121t145.5 48t155.5 -46t68.5 -123v-113q0 -76 -68.5 -122.5t-154.5 -46.5z" />
    <glyph glyph-name="p" unicode="p" horiz-adv-x="516" 
d="M364 178v90q0 30 -15.5 52.5t-35.5 33t-44.5 16.5t-35.5 7t-16 1t-16.5 -1t-35 -7.5t-43 -17t-35 -33t-15.5 -51.5v-201h145q5 0 16 1t35.5 7t44.5 17t35.5 33.5t15.5 52.5zM217 -5h-145v-316h-72v589q0 49 23.5 87t59.5 57.5t70.5 29t63.5 9.5q33 0 69 -10t70.5 -30.5
t57 -57.5t22.5 -85v-90q0 -39 -15 -71t-38.5 -52.5t-53 -34t-58 -19.5t-54.5 -6z" />
    <glyph glyph-name="q" unicode="q" horiz-adv-x="644" 
d="M359 66v207q0 29 -15.5 51t-35 32.5t-43 17t-35 7.5t-15.5 1q-5 0 -16.5 -1t-36 -7.5t-44 -17t-35 -32.5t-15.5 -51v-98q0 -29 15.5 -51t35 -32.5t44 -17t36 -7.5t16.5 -1h144zM574 -253v-72q-92 0 -150.5 47t-63.5 120l-1 6v147h-144q-33 0 -69 10t-70.5 30t-56.5 56.5
t-22 83.5v98q0 38 15 69.5t38 51.5t53 34t58 20t54 6q29 0 63 -9.5t70 -29t59.5 -56.5t23.5 -86v-423v-5q4 -46 43.5 -72t99.5 -26z" />
    <glyph glyph-name="r" unicode="r" horiz-adv-x="474" 
d="M402 378h-187q-53 0 -98 -25.5t-45 -80.5v-272h-72v272q0 86 65 132t150 46h187v-72z" />
    <glyph glyph-name="s" unicode="s" horiz-adv-x="499" 
d="M440 381h-276q-61 0 -76 -12t-15 -44v-3q0 -11 2 -16q2 -9 9 -15q22 -20 90 -20h54l48 -2q38 -1 61 -5t50 -16.5t40 -41t13 -73.5v-4q0 -129 -174 -129h-264v72h264q35 0 56.5 4.5t30.5 14t11 17t2 21.5v4q0 41 -14.5 51.5t-76.5 11.5l-48 1h-53q-174 0 -174 125v3
q0 41 13.5 68t39 39.5t51 17t60.5 4.5h276v-73z" />
    <glyph glyph-name="t" unicode="t" horiz-adv-x="284" 
d="M215 74v-73q-88 1 -151.5 47t-63.5 133v432h68v-154h147v-73h-147v-204q0 -39 24.5 -64.5t55.5 -34.5t67 -9z" />
    <glyph glyph-name="u" unicode="u" horiz-adv-x="502" 
d="M228 0q-53 0 -102.5 18t-80.5 50q-45 45 -45 104v277h73v-277q0 -30 23 -53q46 -46 132 -46q57 0 97 27t40 72v277h73v-277q0 -74 -60.5 -123t-149.5 -49z" />
    <glyph glyph-name="v" unicode="v" horiz-adv-x="503" 
d="M391 68q-68 -68 -181 -68h-210v449h73v-377h136q82 0 131 47q24 25 24 55v273h73v-273q0 -62 -46 -106z" />
    <glyph glyph-name="w" unicode="w" horiz-adv-x="883" 
d="M609 0q-55 0 -105.5 18t-82.5 50l-7 7q-62 -75 -180 -75q-55 0 -105.5 18t-82.5 50q-46 44 -46 104v278h74l1 -278q0 -30 23 -53q22 -21 59 -34t77 -12q58 0 99 27t41 72v279h75v-10v-41l1 -227q0 -30 24 -54q48 -46 135 -46q58 0 99.5 27t41.5 73q-1 159 -1 278h75v-278
q0 -74 -62 -123.5t-153 -49.5z" />
    <glyph glyph-name="x" unicode="x" horiz-adv-x="468" 
d="M310 10q-2 0 -4 1t-3.5 1.5t-4.5 1t-5 1.5q-55 18 -91 66q-37 -54 -93 -69l-10 -3q-30 -9 -98 -9v72h53q2 0 5.5 0.5t5.5 1.5q8 2 14 4l9 3q35 10 56.5 42.5t21.5 74.5v2v44v2q0 44 -22 79t-56 45l-10 3q-5 2 -13 4q-6 2 -10 2q-9 1 -54 1v72q68 0 98 -9l11 -4
q56 -16 92 -72q35 56 93 74q3 1 8 3l5 1q19 6 32 7q10 1 59 1v-72q-43 0 -51 -1q-7 0 -19 -4q-1 0 -3 -1t-4.5 -1.5t-4.5 -1.5q-33 -11 -55.5 -46.5t-23.5 -79.5v-2v-44v-2q2 -90 76 -114q10 -3 18 -6q18 -6 68 -6v-72q-62 0 -90 10z" />
    <glyph glyph-name="y" unicode="y" horiz-adv-x="530" 
d="M227 -346q-107 0 -165.5 60t-58.5 135h74q0 -43 36.5 -81.5t113.5 -38.5q80 0 113.5 36t33.5 123v106h-105h-7q-22 0 -48 3t-71.5 20.5t-76.5 47.5q-66 65 -66 172v90v126h74v-126v-90q0 -76 43 -117q35 -34 95 -46q24 -5 56 -5h106v384h74v-565q0 -234 -221 -234z" />
    <glyph glyph-name="z" unicode="z" horiz-adv-x="512" 
d="M261 199h-54l-44 -2q-58 -1 -74 -15t-16 -54v-56h357v-72h-429v128q0 44 13 73.5t38 43t49.5 18.5t59.5 6l46 2h54q34 0 55.5 5t29.5 14t10 15t2 15v59h-357v72h429v-131q0 -121 -169 -121z" />
    <glyph glyph-name="braceleft" unicode="{" horiz-adv-x="324" 
d="M266 49v-75q-93 1 -145 51t-48 138v3l1 10q1 9 2.5 23.5t2.5 31t2 34.5t1 30q0 4 -8 13l-9 9q-2 2 -5.5 5t-5.5 5q-20 18 -29 30q-15 21 -15 42q0 23 16 43q12 15 30 28q2 1 10.5 7.5t12 10.5t3.5 8q0 12 -1 30l-2 36t-2.5 33.5t-2.5 25.5l-1 10v3q-4 88 48.5 140.5
t144.5 53.5v-76q-120 -2 -121 -116q9 -126 9 -140q0 -29 -20 -54q-7 -9 -17 -18l-18 -15q-8 -6 -13 -11q10 -8 15 -13q25 -23 34 -36q19 -26 19 -54q0 -8 -9 -134q1 -112 121 -112z" />
    <glyph glyph-name="bar" unicode="|" horiz-adv-x="118" 
d="M73 -59h-73v923h73v-923z" />
    <glyph glyph-name="braceright" unicode="}" horiz-adv-x="323" 
d="M185 326q-3 -3 -11 -9q-3 -4 -9 -10q-8 -9 -8 -13q0 -12 1 -30t2.5 -34t2.5 -31t2 -24l1 -9v-3q4 -88 -47.5 -138t-143.5 -51l-1 75q120 0 120 111q0 2 -2.5 29.5t-4.5 56t-2 48.5q0 30 19 54q10 14 34 36q11 8 15 14q-2 2 -6.5 5.5t-6.5 5.5q-9 6 -17 14q-13 11 -18 18
q-20 25 -20 54q0 14 9 140q0 115 -120 115l1 76q91 -1 143 -53t48 -140v-3l-1 -10q-1 -10 -2 -25.5t-2.5 -33t-2.5 -36t-1 -30.5q0 -2 1.5 -4.5t4.5 -5.5t6 -5t7.5 -5.5t6.5 -5.5q20 -15 30 -27q16 -21 16 -43q0 -33 -44 -73z" />
    <glyph glyph-name="asciitilde" unicode="~" horiz-adv-x="592" 
d="M499 250q-39 -39 -67 -53q-29 -14 -57 -16t-53.5 7.5t-44 21t-40.5 29.5l-5 4q-57 45 -97 45q-30 -2 -56 -26h-89l42 44q45 43 102 43q65 1 143 -61q17 -13 23 -17.5t21.5 -14t26 -11.5t25.5 -1t29 8t38 30h87q-17 -21 -28 -32z" />
    <glyph glyph-name="Ydieresis" unicode="&#x178;" horiz-adv-x="1000" 
 />
    <glyph glyph-name="endash" unicode="&#x2013;" horiz-adv-x="281" 
d="M200 386h-200v76h200v-76z" />
    <glyph glyph-name="emdash" unicode="&#x2014;" horiz-adv-x="1000" 
 />
    <glyph glyph-name="quoteleft" unicode="&#x2018;" horiz-adv-x="163" 
d="M66 633l-66 10q19 126 61 192l56 -37q-36 -57 -51 -165z" />
    <glyph glyph-name="quoteright" unicode="&#x2019;" horiz-adv-x="163" 
d="M55 631l-56 37q37 75 51 165l65 -11q-15 -109 -60 -191z" />
    <glyph glyph-name="quotesinglbase" unicode="&#x201a;" horiz-adv-x="163" 
d="M55 -91l-56 37q38 75 51 164l65 -11q-15 -108 -60 -190z" />
    <glyph glyph-name="quotedblleft" unicode="&#x201c;" horiz-adv-x="257" 
d="M71 632l-71 10q19 120 65 193l60 -37q-38 -61 -54 -166zM174 620l-70 10q19 120 65 193l60 -37q-38 -61 -55 -166z" />
    <glyph glyph-name="quotedblright" unicode="&#x201d;" horiz-adv-x="257" 
d="M59 629l-60 38q42 83 54 166l70 -11q-17 -112 -64 -193zM163 618l-61 37q40 63 55 166l70 -11q-15 -103 -64 -192z" />
    <glyph glyph-name="bullet" unicode="&#x2022;" horiz-adv-x="408" 
d="M35 389q-14 0 -24 10t-10 24t10 24.5t24 10.5t24 -10.5t10 -24.5t-10 -24t-24 -10z" />
  </font>
</defs>
</svg>
